<svg width="123" height="24" viewBox="0 0 123 24" fill="none" xmlns="http://www.w3.org/2000/svg">
<path d="M34.396 7.888V5.16H45.88V7.888H41.48V21H38.818V7.888H34.396ZM55.9476 14.906C55.9476 13.058 55.1556 11.716 53.2196 11.716C51.3496 11.716 50.4256 13.014 50.4256 15.016V21H47.8736V4.28H50.3816V11.012H50.4476C51.1076 9.846 52.2736 9.098 54.0336 9.098C57.0916 9.098 58.4996 11.144 58.4996 13.96V21H55.9476V14.906ZM71.6198 9.362V21H69.1118V19.284H69.0458C68.3858 20.472 67.2858 21.264 65.5698 21.264C62.5778 21.264 61.1698 19.218 61.1698 16.402V9.362H63.7218V15.742C63.7218 17.568 64.4698 18.888 66.3398 18.888C68.1878 18.888 69.0678 17.502 69.0678 15.588V9.362H71.6198ZM74.8365 21V9.362H77.3445V11.122H77.4105C78.0925 9.912 79.2805 9.098 81.0625 9.098C84.0985 9.098 85.4625 11.144 85.4625 13.96V21H82.9105V15.016C82.9105 13.168 82.1185 11.826 80.1825 11.826C78.3125 11.826 77.3885 13.124 77.3885 15.126V21H74.8365ZM99.8735 4.28V21H97.3435V19.13H97.2775C96.5075 20.45 95.0995 21.264 93.3175 21.264C90.1055 21.264 87.7735 18.888 87.7735 15.148C87.7735 11.474 90.2155 9.098 93.3395 9.098C95.0995 9.098 96.5295 9.868 97.2335 11.276H97.3215V4.28H99.8735ZM93.8015 11.782C91.9095 11.782 90.4355 13.212 90.4355 15.302C90.4355 17.48 91.8875 18.888 93.8015 18.888C95.7595 18.888 97.2555 17.458 97.2555 15.28C97.2555 13.168 95.7595 11.782 93.8015 11.782ZM112.351 20.67C111.317 21.088 110.129 21.264 108.897 21.264C104.805 21.264 102.297 18.998 102.297 15.126C102.297 11.672 104.475 9.098 107.885 9.098C111.471 9.098 113.121 12.002 113.121 14.862C113.121 15.28 113.099 15.742 113.055 16.05H105.113C105.421 17.964 106.917 19.108 109.293 19.108C110.371 19.108 111.295 18.932 112.131 18.602L112.351 20.67ZM107.907 11.562C106.455 11.562 105.245 12.464 105.003 14.378H110.723C110.591 12.816 109.557 11.562 107.907 11.562ZM115.506 21V9.362H118.014V11.144H118.08C118.696 9.802 120.082 9.098 122.04 9.098L121.886 12.046C119.092 11.98 118.058 13.256 118.058 15.896V21H115.506Z" fill="white"/>
<circle cx="12" cy="12" r="12" fill="white"/>
<path d="M12.75 10.5H18L11.25 20.25V13.5H6L12.75 3.75V10.5Z" fill="black"/>
</svg>
